# Blender 4.5.3 LTS
# www.blender.org
mtllib t.mtl
o Texto
v 0.253174 0.039539 0.176196
v 0.144345 0.039961 0.175845
v 0.147480 0.718384 0.019098
v 0.256309 0.717962 0.019449
v 0.384100 0.476565 0.075523
v 0.031199 0.477934 0.074385
v 0.031675 0.580881 0.050599
v 0.384576 0.579513 0.051737
v 0.253990 -0.041506 -0.174562
v 0.145161 -0.041084 -0.174912
v 0.148297 0.637338 -0.331660
v 0.257126 0.636916 -0.331309
v 0.384916 0.395520 -0.275235
v 0.032015 0.396888 -0.276373
v 0.032491 0.499835 -0.300158
v 0.385392 0.498467 -0.299021
v 0.253990 -0.041506 -0.174562
v 0.265682 -0.052824 -0.171129
v 0.277171 -0.063601 -0.166255
v 0.288260 -0.073654 -0.160022
v 0.298759 -0.082810 -0.152538
v 0.308489 -0.090913 -0.143931
v 0.317282 -0.097824 -0.134347
v 0.324989 -0.103424 -0.123950
v 0.331478 -0.107618 -0.112920
v 0.336637 -0.110335 -0.101443
v 0.340379 -0.111527 -0.089718
v 0.342639 -0.111174 -0.077943
v 0.343379 -0.109283 -0.066322
v 0.342971 -0.068760 0.109057
v 0.342178 -0.065362 0.120327
v 0.339866 -0.060516 0.131053
v 0.336073 -0.054305 0.141050
v 0.330866 -0.046834 0.150149
v 0.324333 -0.038233 0.158192
v 0.316586 -0.028647 0.165044
v 0.307757 -0.018242 0.170586
v 0.297998 -0.007194 0.174723
v 0.287475 0.004306 0.177386
v 0.276369 0.016063 0.178527
v 0.264870 0.027875 0.178128
v 0.253174 0.039539 0.176196
v 0.145161 -0.041084 -0.174912
v 0.133359 -0.052311 -0.171555
v 0.121756 -0.062999 -0.166756
v 0.110549 -0.072965 -0.160595
v 0.099932 -0.082039 -0.153179
v 0.090084 -0.090066 -0.144634
v 0.081176 -0.096908 -0.135108
v 0.073359 -0.102448 -0.124761
v 0.066767 -0.106592 -0.113773
v 0.061512 -0.109268 -0.102330
v 0.057686 -0.110431 -0.090629
v 0.055353 -0.110060 -0.078869
v 0.054553 -0.108163 -0.067253
v 0.054145 -0.067640 0.108126
v 0.054891 -0.064248 0.119401
v 0.057172 -0.059420 0.130141
v 0.060948 -0.053238 0.140163
v 0.066154 -0.045808 0.149295
v 0.072702 -0.037257 0.157381
v 0.080479 -0.027732 0.164283
v 0.089352 -0.017395 0.169882
v 0.099170 -0.006423 0.174082
v 0.109764 0.004996 0.176813
v 0.120953 0.016666 0.178026
v 0.132546 0.028388 0.177702
v 0.144345 0.039961 0.175845
v 0.148297 0.637338 -0.331660
v 0.136601 0.649003 -0.333592
v 0.125101 0.660815 -0.333991
v 0.113995 0.672571 -0.332849
v 0.103473 0.684072 -0.330187
v 0.093713 0.695119 -0.326049
v 0.084885 0.705525 -0.320508
v 0.077138 0.715110 -0.313656
v 0.070604 0.723712 -0.305612
v 0.065397 0.731182 -0.296514
v 0.061605 0.737394 -0.286516
v 0.059292 0.742240 -0.275791
v 0.058499 0.745637 -0.264521
v 0.058091 0.786160 -0.089142
v 0.058831 0.788052 -0.077520
v 0.061091 0.788404 -0.065746
v 0.064833 0.787212 -0.054020
v 0.069992 0.784496 -0.042544
v 0.076481 0.780302 -0.031513
v 0.084188 0.774701 -0.021117
v 0.092982 0.767791 -0.011533
v 0.102711 0.759688 -0.002925
v 0.113210 0.750532 0.004559
v 0.124299 0.740479 0.010791
v 0.135788 0.729702 0.015665
v 0.147480 0.718384 0.019098
v 0.257126 0.636916 -0.331309
v 0.268924 0.648490 -0.333166
v 0.280517 0.660212 -0.333490
v 0.291706 0.671882 -0.332276
v 0.302300 0.683301 -0.329546
v 0.312118 0.694272 -0.325345
v 0.320991 0.704609 -0.319747
v 0.328768 0.714135 -0.312845
v 0.335316 0.722686 -0.304759
v 0.340522 0.730116 -0.295627
v 0.344298 0.736298 -0.285605
v 0.346579 0.741126 -0.274865
v 0.347326 0.744518 -0.263590
v 0.346918 0.785040 -0.088211
v 0.346117 0.786938 -0.076594
v 0.343784 0.787308 -0.064835
v 0.339958 0.786146 -0.053134
v 0.334704 0.783470 -0.041691
v 0.328112 0.779326 -0.030702
v 0.320294 0.773786 -0.020356
v 0.311386 0.766944 -0.010829
v 0.301539 0.758917 -0.002285
v 0.290921 0.749843 0.005131
v 0.279715 0.739877 0.011292
v 0.268111 0.729189 0.016092
v 0.256309 0.717962 0.019449
v 0.384916 0.395520 -0.275235
v 0.396609 0.384202 -0.271803
v 0.408098 0.373424 -0.266928
v 0.419187 0.363372 -0.260696
v 0.429686 0.354216 -0.253212
v 0.439415 0.346113 -0.244604
v 0.448209 0.339202 -0.235020
v 0.455916 0.333602 -0.224624
v 0.462404 0.329408 -0.213593
v 0.467564 0.326691 -0.202117
v 0.471306 0.325499 -0.190391
v 0.473566 0.325852 -0.178617
v 0.474306 0.327743 -0.166995
v 0.473897 0.368266 0.008383
v 0.473104 0.371664 0.019653
v 0.470792 0.376510 0.030379
v 0.466999 0.382721 0.040376
v 0.461792 0.390192 0.049475
v 0.455259 0.398793 0.057519
v 0.447512 0.408379 0.064370
v 0.438683 0.418784 0.069912
v 0.428924 0.429832 0.074050
v 0.418401 0.441332 0.076712
v 0.407295 0.453089 0.077853
v 0.395796 0.464901 0.077455
v 0.384100 0.476565 0.075523
v 0.032015 0.396888 -0.276373
v 0.020213 0.385661 -0.273016
v 0.008610 0.374973 -0.268216
v -0.002597 0.365007 -0.262055
v -0.013214 0.355933 -0.254639
v -0.023062 0.347906 -0.246095
v -0.031970 0.341064 -0.236568
v -0.039787 0.335524 -0.226222
v -0.046379 0.331380 -0.215233
v -0.051634 0.328704 -0.203790
v -0.055460 0.327542 -0.192089
v -0.057793 0.327912 -0.180330
v -0.058593 0.329810 -0.168713
v -0.059001 0.370332 0.006666
v -0.058255 0.373724 0.017941
v -0.055974 0.378552 0.028681
v -0.052198 0.384734 0.038703
v -0.046992 0.392164 0.047835
v -0.040444 0.400715 0.055921
v -0.032667 0.410241 0.062823
v -0.023794 0.420577 0.068421
v -0.013976 0.431549 0.072622
v -0.003382 0.442968 0.075352
v 0.007807 0.454638 0.076566
v 0.019400 0.466360 0.076242
v 0.031199 0.477934 0.074385
v 0.032491 0.499835 -0.300158
v 0.020795 0.511500 -0.302090
v 0.009295 0.523312 -0.302489
v -0.001811 0.535069 -0.301348
v -0.012333 0.546569 -0.298685
v -0.022093 0.557617 -0.294548
v -0.030921 0.568022 -0.289006
v -0.038668 0.577608 -0.282155
v -0.045202 0.586209 -0.274111
v -0.050409 0.593680 -0.265012
v -0.054201 0.599891 -0.255015
v -0.056514 0.604737 -0.244289
v -0.057307 0.608135 -0.233019
v -0.057715 0.648658 -0.057640
v -0.056975 0.650549 -0.046019
v -0.054715 0.650902 -0.034244
v -0.050973 0.649710 -0.022519
v -0.045814 0.646993 -0.011042
v -0.039325 0.642799 -0.000012
v -0.031618 0.637199 0.010385
v -0.022824 0.630288 0.019968
v -0.013095 0.622185 0.028576
v -0.002596 0.613029 0.036060
v 0.008493 0.602976 0.042293
v 0.019982 0.592199 0.047167
v 0.031675 0.580881 0.050599
v 0.385392 0.498467 -0.299021
v 0.397190 0.510041 -0.300877
v 0.408783 0.521763 -0.301202
v 0.419973 0.533433 -0.299988
v 0.430567 0.544852 -0.297258
v 0.440384 0.555823 -0.293057
v 0.449258 0.566160 -0.287458
v 0.457035 0.575686 -0.280557
v 0.463582 0.584237 -0.272471
v 0.468789 0.591666 -0.263339
v 0.472564 0.597848 -0.253317
v 0.474845 0.602677 -0.242577
v 0.475592 0.606069 -0.231302
v 0.475184 0.646591 -0.055923
v 0.474384 0.648489 -0.044306
v 0.472051 0.648859 -0.032547
v 0.468224 0.647696 -0.020845
v 0.462970 0.645021 -0.009403
v 0.456378 0.640877 0.001586
v 0.448561 0.635337 0.011932
v 0.439652 0.628495 0.021459
v 0.429805 0.620468 0.030004
v 0.419187 0.611394 0.037420
v 0.407981 0.601427 0.043580
v 0.396378 0.590739 0.048380
v 0.384576 0.579513 0.051737
vn -0.0023 0.2251 0.9743
vn 0.0023 -0.2251 -0.9743
vn 0.0838 -0.3038 -0.9491
vn -0.0801 -0.3031 -0.9496
vn -0.0306 -0.2567 -0.9660
vn 0.0349 -0.2569 -0.9658
vn 0.1496 -0.3649 -0.9189
vn -0.1465 -0.3638 -0.9199
vn 0.2162 -0.4248 -0.8791
vn -0.2138 -0.4231 -0.8805
vn 0.2840 -0.4833 -0.8281
vn -0.2824 -0.4811 -0.8299
vn 0.3529 -0.5400 -0.7641
vn -0.3522 -0.5373 -0.7664
vn 0.4224 -0.5938 -0.6849
vn -0.4225 -0.5905 -0.6876
vn 0.4911 -0.6427 -0.5880
vn -0.4922 -0.6389 -0.5912
vn 0.5566 -0.6839 -0.4717
vn -0.5588 -0.6796 -0.4753
vn 0.6153 -0.7135 -0.3351
vn -0.6186 -0.7087 -0.3391
vn 0.6626 -0.7270 -0.1802
vn -0.6670 -0.7219 -0.1845
vn 0.6934 -0.7205 -0.0119
vn -0.6989 -0.7151 -0.0164
vn 0.7033 -0.7012 0.1172
vn -0.7095 -0.6957 0.1126
vn 0.7031 -0.6808 0.2054
vn -0.7097 -0.6753 0.2008
vn 0.6926 -0.6415 0.3298
vn -0.6997 -0.6361 0.3253
vn 0.6610 -0.5736 0.4838
vn -0.6685 -0.5684 0.4795
vn 0.6131 -0.4935 0.6169
vn -0.6209 -0.4888 0.6129
vn 0.5538 -0.4071 0.7263
vn -0.5616 -0.4028 0.7228
vn 0.4878 -0.3191 0.8125
vn -0.4955 -0.3153 0.8094
vn 0.4187 -0.2327 0.8778
vn -0.4262 -0.2294 0.8751
vn 0.3490 -0.1497 0.9251
vn -0.3561 -0.1470 0.9228
vn 0.2799 -0.0708 0.9574
vn -0.2866 -0.0686 0.9556
vn 0.2119 0.0041 0.9773
vn -0.2181 0.0058 0.9759
vn 0.1451 0.0753 0.9865
vn -0.1509 0.0765 0.9856
vn 0.0793 0.1435 0.9865
vn -0.0846 0.1441 0.9859
vn 0.0303 0.1929 0.9808
vn -0.0351 0.1931 0.9805
vn -0.0793 -0.1435 -0.9865
vn -0.0303 -0.1929 -0.9808
vn -0.1451 -0.0753 -0.9865
vn -0.2119 -0.0041 -0.9773
vn -0.2799 0.0708 -0.9574
vn -0.3490 0.1497 -0.9251
vn -0.4187 0.2327 -0.8778
vn -0.4878 0.3191 -0.8125
vn -0.5538 0.4071 -0.7263
vn -0.6131 0.4935 -0.6169
vn -0.6610 0.5736 -0.4838
vn -0.6926 0.6415 -0.3298
vn -0.7031 0.6808 -0.2054
vn -0.7033 0.7012 -0.1172
vn -0.6934 0.7205 0.0119
vn -0.6626 0.7270 0.1802
vn -0.6153 0.7135 0.3351
vn -0.5566 0.6839 0.4717
vn -0.4911 0.6427 0.5880
vn -0.4224 0.5938 0.6849
vn -0.3529 0.5400 0.7641
vn -0.2840 0.4833 0.8281
vn -0.2162 0.4248 0.8791
vn -0.1496 0.3649 0.9189
vn -0.0838 0.3038 0.9491
vn -0.0349 0.2569 0.9658
vn 0.0846 -0.1441 -0.9859
vn 0.0351 -0.1931 -0.9805
vn 0.1509 -0.0765 -0.9856
vn 0.2181 -0.0058 -0.9759
vn 0.2866 0.0686 -0.9556
vn 0.3561 0.1470 -0.9228
vn 0.4262 0.2295 -0.8751
vn 0.4955 0.3153 -0.8094
vn 0.5616 0.4028 -0.7228
vn 0.6209 0.4888 -0.6129
vn 0.6685 0.5684 -0.4795
vn 0.6997 0.6361 -0.3253
vn 0.7097 0.6753 -0.2008
vn 0.7095 0.6957 -0.1126
vn 0.6989 0.7151 0.0164
vn 0.6670 0.7219 0.1845
vn 0.6186 0.7087 0.3391
vn 0.5588 0.6796 0.4753
vn 0.4922 0.6389 0.5912
vn 0.4225 0.5905 0.6876
vn 0.3522 0.5373 0.7664
vn 0.2824 0.4811 0.8299
vn 0.2138 0.4231 0.8805
vn 0.1465 0.3638 0.9199
vn 0.0801 0.3031 0.9496
vn 0.0306 0.2567 0.9660
vn 0.4262 0.2294 -0.8751
vn 0.6209 0.4887 -0.6129
vt 0.142857 0.000000
vt 0.428571 0.000000
vt 0.285714 0.000000
vt 0.000000 0.000000
vt 0.714286 0.000000
vt 1.000000 0.000000
vt 0.857143 0.000000
vt 0.571429 0.000000
vt 0.000000 0.040000
vt 0.250000 0.040000
vt 0.250000 0.000000
vt 0.000000 0.080000
vt 0.250000 0.080000
vt 0.000000 0.120000
vt 0.250000 0.120000
vt 0.000000 0.160000
vt 0.250000 0.160000
vt 0.000000 0.200000
vt 0.250000 0.200000
vt 0.000000 0.240000
vt 0.250000 0.240000
vt 0.000000 0.280000
vt 0.250000 0.280000
vt 0.000000 0.320000
vt 0.250000 0.320000
vt 0.000000 0.360000
vt 0.250000 0.360000
vt 0.000000 0.400000
vt 0.250000 0.400000
vt 0.000000 0.440000
vt 0.250000 0.440000
vt 0.000000 0.480000
vt 0.250000 0.480000
vt 0.000000 0.520000
vt 0.250000 0.520000
vt 0.000000 0.560000
vt 0.250000 0.560000
vt 0.000000 0.600000
vt 0.250000 0.600000
vt 0.000000 0.640000
vt 0.250000 0.640000
vt 0.000000 0.680000
vt 0.250000 0.680000
vt 0.000000 0.720000
vt 0.250000 0.720000
vt 0.000000 0.760000
vt 0.250000 0.760000
vt 0.000000 0.800000
vt 0.250000 0.800000
vt 0.000000 0.840000
vt 0.250000 0.840000
vt 0.000000 0.880000
vt 0.250000 0.880000
vt 0.000000 0.920000
vt 0.250000 0.920000
vt 0.000000 0.960000
vt 0.250000 0.960000
vt 0.000000 1.000000
vt 0.250000 1.000000
vt 0.500000 0.040000
vt 0.500000 0.000000
vt 0.500000 0.080000
vt 0.500000 0.120000
vt 0.500000 0.160000
vt 0.500000 0.200000
vt 0.500000 0.240000
vt 0.500000 0.280000
vt 0.500000 0.320000
vt 0.500000 0.360000
vt 0.500000 0.400000
vt 0.500000 0.440000
vt 0.500000 0.480000
vt 0.500000 0.520000
vt 0.500000 0.560000
vt 0.500000 0.600000
vt 0.500000 0.640000
vt 0.500000 0.680000
vt 0.500000 0.720000
vt 0.500000 0.760000
vt 0.500000 0.800000
vt 0.500000 0.840000
vt 0.500000 0.880000
vt 0.500000 0.920000
vt 0.500000 0.960000
vt 0.500000 1.000000
vt 0.750000 0.040000
vt 0.750000 0.000000
vt 0.750000 0.080000
vt 0.750000 0.120000
vt 0.750000 0.160000
vt 0.750000 0.200000
vt 0.750000 0.240000
vt 0.750000 0.280000
vt 0.750000 0.320000
vt 0.750000 0.360000
vt 0.750000 0.400000
vt 0.750000 0.440000
vt 0.750000 0.480000
vt 0.750000 0.520000
vt 0.750000 0.560000
vt 0.750000 0.600000
vt 0.750000 0.640000
vt 0.750000 0.680000
vt 0.750000 0.720000
vt 0.750000 0.760000
vt 0.750000 0.800000
vt 0.750000 0.840000
vt 0.750000 0.880000
vt 0.750000 0.920000
vt 0.750000 0.960000
vt 0.750000 1.000000
vt 1.000000 0.040000
vt 1.000000 0.080000
vt 1.000000 0.120000
vt 1.000000 0.160000
vt 1.000000 0.200000
vt 1.000000 0.240000
vt 1.000000 0.280000
vt 1.000000 0.320000
vt 1.000000 0.360000
vt 1.000000 0.400000
vt 1.000000 0.440000
vt 1.000000 0.480000
vt 1.000000 0.520000
vt 1.000000 0.560000
vt 1.000000 0.600000
vt 1.000000 0.640000
vt 1.000000 0.680000
vt 1.000000 0.720000
vt 1.000000 0.760000
vt 1.000000 0.800000
vt 1.000000 0.840000
vt 1.000000 0.880000
vt 1.000000 0.920000
vt 1.000000 0.960000
vt 1.000000 1.000000
s 0
f 2/1/1 4/2/1 3/3/1
f 2/1/1 1/4/1 4/2/1
f 6/5/1 8/6/1 7/7/1
f 6/5/1 5/8/1 8/6/1
f 10/1/2 11/3/2 12/2/2
f 10/1/2 12/2/2 9/4/2
f 14/5/2 15/7/2 16/6/2
f 14/5/2 16/6/2 13/8/2
s 1
f 18/9/3 44/10/4 43/11/5 17/4/6
f 19/12/7 45/13/8 44/10/4 18/9/3
f 20/14/9 46/15/10 45/13/8 19/12/7
f 21/16/11 47/17/12 46/15/10 20/14/9
f 22/18/13 48/19/14 47/17/12 21/16/11
f 23/20/15 49/21/16 48/19/14 22/18/13
f 24/22/17 50/23/18 49/21/16 23/20/15
f 25/24/19 51/25/20 50/23/18 24/22/17
f 26/26/21 52/27/22 51/25/20 25/24/19
f 27/28/23 53/29/24 52/27/22 26/26/21
f 28/30/25 54/31/26 53/29/24 27/28/23
f 29/32/27 55/33/28 54/31/26 28/30/25
f 30/34/29 56/35/30 55/33/28 29/32/27
f 31/36/31 57/37/32 56/35/30 30/34/29
f 32/38/33 58/39/34 57/37/32 31/36/31
f 33/40/35 59/41/36 58/39/34 32/38/33
f 34/42/37 60/43/38 59/41/36 33/40/35
f 35/44/39 61/45/40 60/43/38 34/42/37
f 36/46/41 62/47/42 61/45/40 35/44/39
f 37/48/43 63/49/44 62/47/42 36/46/41
f 38/50/45 64/51/46 63/49/44 37/48/43
f 39/52/47 65/53/48 64/51/46 38/50/45
f 40/54/49 66/55/50 65/53/48 39/52/47
f 41/56/51 67/57/52 66/55/50 40/54/49
f 42/58/53 68/59/54 67/57/52 41/56/51
f 44/10/4 70/60/55 69/61/56 43/11/5
f 45/13/8 71/62/57 70/60/55 44/10/4
f 46/15/10 72/63/58 71/62/57 45/13/8
f 47/17/12 73/64/59 72/63/58 46/15/10
f 48/19/14 74/65/60 73/64/59 47/17/12
f 49/21/16 75/66/61 74/65/60 48/19/14
f 50/23/18 76/67/62 75/66/61 49/21/16
f 51/25/20 77/68/63 76/67/62 50/23/18
f 52/27/22 78/69/64 77/68/63 51/25/20
f 53/29/24 79/70/65 78/69/64 52/27/22
f 54/31/26 80/71/66 79/70/65 53/29/24
f 55/33/28 81/72/67 80/71/66 54/31/26
f 56/35/30 82/73/68 81/72/67 55/33/28
f 57/37/32 83/74/69 82/73/68 56/35/30
f 58/39/34 84/75/70 83/74/69 57/37/32
f 59/41/36 85/76/71 84/75/70 58/39/34
f 60/43/38 86/77/72 85/76/71 59/41/36
f 61/45/40 87/78/73 86/77/72 60/43/38
f 62/47/42 88/79/74 87/78/73 61/45/40
f 63/49/44 89/80/75 88/79/74 62/47/42
f 64/51/46 90/81/76 89/80/75 63/49/44
f 65/53/48 91/82/77 90/81/76 64/51/46
f 66/55/50 92/83/78 91/82/77 65/53/48
f 67/57/52 93/84/79 92/83/78 66/55/50
f 68/59/54 94/85/80 93/84/79 67/57/52
f 70/60/55 96/86/81 95/87/82 69/61/56
f 71/62/57 97/88/83 96/86/81 70/60/55
f 72/63/58 98/89/84 97/88/83 71/62/57
f 73/64/59 99/90/85 98/89/84 72/63/58
f 74/65/60 100/91/86 99/90/85 73/64/59
f 75/66/61 101/92/87 100/91/86 74/65/60
f 76/67/62 102/93/88 101/92/87 75/66/61
f 77/68/63 103/94/89 102/93/88 76/67/62
f 78/69/64 104/95/90 103/94/89 77/68/63
f 79/70/65 105/96/91 104/95/90 78/69/64
f 80/71/66 106/97/92 105/96/91 79/70/65
f 81/72/67 107/98/93 106/97/92 80/71/66
f 82/73/68 108/99/94 107/98/93 81/72/67
f 83/74/69 109/100/95 108/99/94 82/73/68
f 84/75/70 110/101/96 109/100/95 83/74/69
f 85/76/71 111/102/97 110/101/96 84/75/70
f 86/77/72 112/103/98 111/102/97 85/76/71
f 87/78/73 113/104/99 112/103/98 86/77/72
f 88/79/74 114/105/100 113/104/99 87/78/73
f 89/80/75 115/106/101 114/105/100 88/79/74
f 90/81/76 116/107/102 115/106/101 89/80/75
f 91/82/77 117/108/103 116/107/102 90/81/76
f 92/83/78 118/109/104 117/108/103 91/82/77
f 93/84/79 119/110/105 118/109/104 92/83/78
f 94/85/80 120/111/106 119/110/105 93/84/79
f 96/86/81 18/112/3 17/6/6 95/87/82
f 97/88/83 19/113/7 18/112/3 96/86/81
f 98/89/84 20/114/9 19/113/7 97/88/83
f 99/90/85 21/115/11 20/114/9 98/89/84
f 100/91/86 22/116/13 21/115/11 99/90/85
f 101/92/87 23/117/15 22/116/13 100/91/86
f 102/93/88 24/118/17 23/117/15 101/92/87
f 103/94/89 25/119/19 24/118/17 102/93/88
f 104/95/90 26/120/21 25/119/19 103/94/89
f 105/96/91 27/121/23 26/120/21 104/95/90
f 106/97/92 28/122/25 27/121/23 105/96/91
f 107/98/93 29/123/27 28/122/25 106/97/92
f 108/99/94 30/124/29 29/123/27 107/98/93
f 109/100/95 31/125/31 30/124/29 108/99/94
f 110/101/96 32/126/33 31/125/31 109/100/95
f 111/102/97 33/127/35 32/126/33 110/101/96
f 112/103/98 34/128/37 33/127/35 111/102/97
f 113/104/99 35/129/39 34/128/37 112/103/98
f 114/105/100 36/130/41 35/129/39 113/104/99
f 115/106/101 37/131/43 36/130/41 114/105/100
f 116/107/102 38/132/45 37/131/43 115/106/101
f 117/108/103 39/133/47 38/132/45 116/107/102
f 118/109/104 40/134/49 39/133/47 117/108/103
f 119/110/105 41/135/51 40/134/49 118/109/104
f 120/111/106 42/136/53 41/135/51 119/110/105
f 122/9/3 148/10/4 147/11/5 121/4/6
f 123/12/7 149/13/8 148/10/4 122/9/3
f 124/14/9 150/15/10 149/13/8 123/12/7
f 125/16/11 151/17/12 150/15/10 124/14/9
f 126/18/13 152/19/14 151/17/12 125/16/11
f 127/20/15 153/21/16 152/19/14 126/18/13
f 128/22/17 154/23/18 153/21/16 127/20/15
f 129/24/19 155/25/20 154/23/18 128/22/17
f 130/26/21 156/27/22 155/25/20 129/24/19
f 131/28/23 157/29/24 156/27/22 130/26/21
f 132/30/25 158/31/26 157/29/24 131/28/23
f 133/32/27 159/33/28 158/31/26 132/30/25
f 134/34/29 160/35/30 159/33/28 133/32/27
f 135/36/31 161/37/32 160/35/30 134/34/29
f 136/38/33 162/39/34 161/37/32 135/36/31
f 137/40/35 163/41/36 162/39/34 136/38/33
f 138/42/37 164/43/38 163/41/36 137/40/35
f 139/44/39 165/45/40 164/43/38 138/42/37
f 140/46/41 166/47/42 165/45/40 139/44/39
f 141/48/43 167/49/44 166/47/42 140/46/41
f 142/50/45 168/51/46 167/49/44 141/48/43
f 143/52/47 169/53/48 168/51/46 142/50/45
f 144/54/49 170/55/50 169/53/48 143/52/47
f 145/56/51 171/57/52 170/55/50 144/54/49
f 146/58/53 172/59/54 171/57/52 145/56/51
f 148/10/4 174/60/55 173/61/56 147/11/5
f 149/13/8 175/62/57 174/60/55 148/10/4
f 150/15/10 176/63/58 175/62/57 149/13/8
f 151/17/12 177/64/59 176/63/58 150/15/10
f 152/19/14 178/65/60 177/64/59 151/17/12
f 153/21/16 179/66/61 178/65/60 152/19/14
f 154/23/18 180/67/62 179/66/61 153/21/16
f 155/25/20 181/68/63 180/67/62 154/23/18
f 156/27/22 182/69/64 181/68/63 155/25/20
f 157/29/24 183/70/65 182/69/64 156/27/22
f 158/31/26 184/71/66 183/70/65 157/29/24
f 159/33/28 185/72/67 184/71/66 158/31/26
f 160/35/30 186/73/68 185/72/67 159/33/28
f 161/37/32 187/74/69 186/73/68 160/35/30
f 162/39/34 188/75/70 187/74/69 161/37/32
f 163/41/36 189/76/71 188/75/70 162/39/34
f 164/43/38 190/77/72 189/76/71 163/41/36
f 165/45/40 191/78/73 190/77/72 164/43/38
f 166/47/42 192/79/74 191/78/73 165/45/40
f 167/49/44 193/80/75 192/79/74 166/47/42
f 168/51/46 194/81/76 193/80/75 167/49/44
f 169/53/48 195/82/77 194/81/76 168/51/46
f 170/55/50 196/83/78 195/82/77 169/53/48
f 171/57/52 197/84/79 196/83/78 170/55/50
f 172/59/54 198/85/80 197/84/79 171/57/52
f 174/60/55 200/86/81 199/87/82 173/61/56
f 175/62/57 201/88/83 200/86/81 174/60/55
f 176/63/58 202/89/84 201/88/83 175/62/57
f 177/64/59 203/90/85 202/89/84 176/63/58
f 178/65/60 204/91/86 203/90/85 177/64/59
f 179/66/61 205/92/107 204/91/86 178/65/60
f 180/67/62 206/93/88 205/92/107 179/66/61
f 181/68/63 207/94/89 206/93/88 180/67/62
f 182/69/64 208/95/108 207/94/89 181/68/63
f 183/70/65 209/96/91 208/95/108 182/69/64
f 184/71/66 210/97/92 209/96/91 183/70/65
f 185/72/67 211/98/93 210/97/92 184/71/66
f 186/73/68 212/99/94 211/98/93 185/72/67
f 187/74/69 213/100/95 212/99/94 186/73/68
f 188/75/70 214/101/96 213/100/95 187/74/69
f 189/76/71 215/102/97 214/101/96 188/75/70
f 190/77/72 216/103/98 215/102/97 189/76/71
f 191/78/73 217/104/99 216/103/98 190/77/72
f 192/79/74 218/105/100 217/104/99 191/78/73
f 193/80/75 219/106/101 218/105/100 192/79/74
f 194/81/76 220/107/102 219/106/101 193/80/75
f 195/82/77 221/108/103 220/107/102 194/81/76
f 196/83/78 222/109/104 221/108/103 195/82/77
f 197/84/79 223/110/105 222/109/104 196/83/78
f 198/85/80 224/111/106 223/110/105 197/84/79
f 200/86/81 122/112/3 121/6/6 199/87/82
f 201/88/83 123/113/7 122/112/3 200/86/81
f 202/89/84 124/114/9 123/113/7 201/88/83
f 203/90/85 125/115/11 124/114/9 202/89/84
f 204/91/86 126/116/13 125/115/11 203/90/85
f 205/92/107 127/117/15 126/116/13 204/91/86
f 206/93/88 128/118/17 127/117/15 205/92/107
f 207/94/89 129/119/19 128/118/17 206/93/88
f 208/95/108 130/120/21 129/119/19 207/94/89
f 209/96/91 131/121/23 130/120/21 208/95/108
f 210/97/92 132/122/25 131/121/23 209/96/91
f 211/98/93 133/123/27 132/122/25 210/97/92
f 212/99/94 134/124/29 133/123/27 211/98/93
f 213/100/95 135/125/31 134/124/29 212/99/94
f 214/101/96 136/126/33 135/125/31 213/100/95
f 215/102/97 137/127/35 136/126/33 214/101/96
f 216/103/98 138/128/37 137/127/35 215/102/97
f 217/104/99 139/129/39 138/128/37 216/103/98
f 218/105/100 140/130/41 139/129/39 217/104/99
f 219/106/101 141/131/43 140/130/41 218/105/100
f 220/107/102 142/132/45 141/131/43 219/106/101
f 221/108/103 143/133/47 142/132/45 220/107/102
f 222/109/104 144/134/49 143/133/47 221/108/103
f 223/110/105 145/135/51 144/134/49 222/109/104
f 224/111/106 146/136/53 145/135/51 223/110/105
